Coordinates
version=1
nRows=32
nColumns=22
inDegrees=yes

Units are S.I. units (second, meters, Newtons, ...)
If the header above contains a line with 'inDegrees', this indicates whether rotational values are in degrees (yes) or radians (no).

endheader
time	pelvis_tilt	pelvis_list	pelvis_rotation	pelvis_tx	pelvis_ty	pelvis_tz	hip_flexion_r	hip_adduction_r	hip_rotation_r	knee_angle_r	ankle_angle_r	subtalar_angle_r	hip_flexion_l	hip_adduction_l	hip_rotation_l	knee_angle_l	ankle_angle_l	subtalar_angle_l	lumbar_extension	lumbar_bending	lumbar_rotation
      2.79000000	     -0.25852208	     -3.25596617	    -34.04604501	     -0.54480502	      0.90660758	      0.03196087	     -5.85274695	      8.53477702	      9.22520135	    -19.71944304	     15.91030784	     -4.84986068	     19.48143942	    -12.20401975	     -9.24352582	     -5.29679074	      1.23906694	      9.88720709	     -6.84087591	      2.30595183	      4.34749735
      2.80000000	     -0.40229650	     -3.33159433	    -34.78784828	     -0.53731211	      0.90500303	      0.03472243	     -6.22163997	      8.40941879	      9.62888737	    -19.98048471	     16.28835362	     -4.83810684	     19.70149735	    -12.35249903	     -8.94755957	     -4.85616616	      1.20858709	     10.55436126	     -6.85463188	      2.48959890	      4.28115760
      2.81000000	     -0.51241547	     -3.37545484	    -35.54767510	     -0.52989650	      0.90347110	      0.03748791	     -6.56775084	      8.23416272	     10.04543210	    -20.29673681	     16.65578067	     -4.83399978	     20.02934072	    -12.50119011	     -8.64951381	     -5.04449363	      1.30211464	     10.93325194	     -6.90603751	      2.60858115	      4.22801001
      2.82000000	     -0.58877524	     -3.37811652	    -36.33146793	     -0.52254442	      0.90201518	      0.04024123	     -6.87514590	      7.99846885	     10.47679310	    -20.68498526	     17.01044857	     -4.83334840	     20.43027934	    -12.63041905	     -8.29163691	     -5.76237576	      1.45881130	     11.09538150	     -6.98634532	      2.65347359	      4.19791208
      2.83000000	     -0.69478206	     -3.32088572	    -37.16512408	     -0.51530699	      0.90054443	      0.04294145	     -7.05819507	      7.72877367	     10.97775170	    -21.17092286	     17.36548486	     -4.83568980	     20.98130433	    -12.76099359	     -7.92234551	     -6.98395606	      1.58399525	     11.03545433	     -7.02609731	      2.65803891	      4.21773336
      2.84000000	     -0.77889744	     -3.20093138	    -38.05100366	     -0.50808657	      0.89912773	      0.04560921	     -7.16420759	      7.38630091	     11.53927415	    -21.75359832	     17.71916052	     -4.81207750	     21.57094821	    -12.84191869	     -7.51732149	     -8.55039015	      1.68800562	     10.69888092	     -7.05755179	      2.58532526	      4.29447602
      2.85000000	     -0.85365809	     -3.01282947	    -38.99586952	     -0.50085989	      0.89775923	      0.04823705	     -7.16990439	      6.97476441	     12.16447523	    -22.44295521	     18.04849678	     -4.75342729	     22.18493866	    -12.86572801	     -7.10594213	    -10.34696374	      1.68287178	     10.16810020	     -7.05632683	      2.44258281	      4.43823324
      2.86000000	     -0.92871239	     -2.74733079	    -39.98096275	     -0.49356076	      0.89642934	      0.05082162	     -7.05827003	      6.49743064	     12.84036953	    -23.24193331	     18.34663039	     -4.64298170	     22.81145899	    -12.81484744	     -6.69828810	    -12.25530765	      1.54830697	      9.47377960	     -6.99510943	      2.23693744	      4.62189619
      2.87000000	     -0.98998900	     -2.41434036	    -41.00157094	     -0.48614463	      0.89518788	      0.05339117	     -6.84515127	      5.95754648	     13.55665690	    -24.14969948	     18.57293348	     -4.46944182	     23.40537994	    -12.68458894	     -6.34308465	    -14.16981534	      1.28476063	      8.69529641	     -6.88027620	      1.96835975	      4.83872147
      2.88000000	     -1.02976425	     -2.02589965	    -42.03293944	     -0.47853144	      0.89407986	      0.05600083	     -6.55899544	      5.36358748	     14.28425595	    -25.14051230	     18.70280236	     -4.22733342	     23.93989753	    -12.47634214	     -6.07603582	    -16.01605929	      0.92074961	      7.89560518	     -6.71057970	      1.64276222	      5.07869074
      2.89000000	     -1.04139408	     -1.60411934	    -43.03862824	     -0.47066136	      0.89316449	      0.05868716	     -6.22832548	      4.73899257	     15.00066021	    -26.19888201	     18.67955318	     -3.91463475	     24.39085255	    -12.19789454	     -5.91850428	    -17.73438765	      0.47760097	      7.10774972	     -6.49455806	      1.27628045	      5.28110317
      2.90000000	     -1.00641633	     -1.18926688	    -43.98249030	     -0.46246085	      0.89252495	      0.06149140	     -5.90341619	      4.10322580	     15.63658000	    -27.31247981	     18.44223817	     -3.55610584	     24.71510349	    -11.86266126	     -5.87063665	    -19.29370141	      0.01454865	      6.39463730	     -6.26976627	      0.88770617	      5.43439624
      2.91000000	     -0.91791554	     -0.80988911	    -44.83461101	     -0.45388518	      0.89221925	      0.06447462	     -5.62128696	      3.47909800	     16.16144057	    -28.46788779	     17.95875406	     -3.17769307	     24.88217724	    -11.48326796	     -5.92467291	    -20.66808288	     -0.41256131	      5.78050435	     -6.05407755	      0.48980046	      5.49090247
      2.92000000	     -0.78709766	     -0.49776589	    -45.53719048	     -0.44486347	      0.89227623	      0.06762206	     -5.40796990	      2.89837402	     16.49739669	    -29.64516621	     17.15927811	     -2.75323709	     24.90346720	    -11.07334025	     -6.03532781	    -21.88237357	     -0.72923491	      5.19873860	     -5.86287491	      0.12129014	      5.38582009
      2.93000000	     -0.58983560	     -0.27312347	    -46.10552083	     -0.43544237	      0.89274649	      0.07096509	     -5.27998352	      2.35963979	     16.63735773	    -30.87737949	     16.06720267	     -2.36919583	     24.72292610	    -10.63712899	     -6.20536700	    -22.91414583	     -0.91746336	      4.74292117	     -5.73962696	     -0.22828138	      5.14410249
      2.94000000	     -0.33376733	     -0.13176017	    -46.54470097	     -0.42568291	      0.89360210	      0.07449249	     -5.20672598	      1.86312449	     16.54967364	    -32.19497076	     14.67145201	     -2.02157246	     24.35371162	    -10.18252887	     -6.43273375	    -23.77960114	     -0.94224713	      4.36656120	     -5.68485683	     -0.56025693	      4.75519510
      2.95000000	     -0.02390101	     -0.05290192	    -46.89328141	     -0.41571423	      0.89479000	      0.07817093	     -5.12677712	      1.39546498	     16.24537248	    -33.65573003	     12.99126555	     -1.77421233	     23.80773414	     -9.71207627	     -6.72393627	    -24.47951503	     -0.81597380	      4.10096867	     -5.69394463	     -0.89082153	      4.25757246
      2.96000000	      0.33123710	     -0.00156041	    -47.19563306	     -0.40568777	      0.89622385	      0.08193846	     -4.96301208	      0.93337414	     15.75223090	    -35.31361807	     11.06336473	     -1.64211945	     23.12352750	     -9.22247259	     -7.09497074	    -25.03194529	     -0.55284982	      3.93067625	     -5.75068181	     -1.24058147	      3.68874151
      2.97000000	      0.65432296	      0.04761048	    -47.49723614	     -0.39578873	      0.89774875	      0.08577234	     -4.59926394	      0.52434907	     15.13466316	    -37.21109243	      8.89604052	     -1.67110017	     22.38204562	     -8.77235303	     -7.54515756	    -25.44271074	     -0.11808197	      3.91147952	     -5.78602759	     -1.56888919	      3.06523140
      2.98000000	      1.14829631	      0.13332735	    -47.83705328	     -0.38606804	      0.89951290	      0.08953148	     -4.11079565	     -0.06660925	     14.33030166	    -39.39218535	      6.65247742	     -1.73198298	     21.43285170	     -8.16477695	     -8.11053073	    -25.65558645	      0.22964851	      3.80491384	     -5.95438054	     -2.07369710	      2.47493029
      2.99000000	      1.60579961	      0.25381696	    -48.24033641	     -0.37671681	      0.90122539	      0.09325062	     -3.35415900	     -0.63887877	     13.52624008	    -41.82226251	      4.27100945	     -1.94114615	     20.48651079	     -7.58209663	     -8.75319999	    -25.76054999	      0.69533133	      3.80991646	     -6.09528672	     -2.58321161	      1.87814414
      3.00000000	      2.06993698	      0.43002878	    -48.72404936	     -0.36777796	      0.90287712	      0.09685968	     -2.33271745	     -1.25978514	     12.72512404	    -44.49156169	      1.86172390	     -2.23263115	     19.52577054	     -6.96476669	     -9.46310760	    -25.73635085	      1.15560614	      3.86987525	     -6.23364494	     -3.14578064	      1.31722781
      3.01000000	      2.53618966	      0.65340725	    -49.28725122	     -0.35931264	      0.90443396	      0.10036281	     -1.07033579	     -1.90463197	     11.99598293	    -47.34802652	     -0.49839863	     -2.55109602	     18.56934170	     -6.32141479	    -10.22753387	    -25.60440005	      1.59335077	      3.96312535	     -6.37376894	     -3.75898131	      0.79789762
      3.02000000	      2.99644578	      0.92058555	    -49.93350250	     -0.35128735	      0.90586824	      0.10377137	      0.40359424	     -2.55609954	     11.38767034	    -50.31665222	     -2.71990665	     -2.85335524	     17.62930177	     -5.65588578	    -11.05096490	    -25.37711684	      2.01169837	      4.07298807	     -6.50371753	     -4.40291270	      0.30146639
      3.03000000	      3.43009785	      1.20268793	    -50.64539000	     -0.34370120	      0.90717575	      0.10710729	      2.04318268	     -3.15288841	     10.92937079	    -53.32265189	     -4.74157801	     -3.07248165	     16.71498894	     -4.99918791	    -11.89727258	    -25.07344848	      2.40889917	      4.18719889	     -6.62939564	     -5.04077672	     -0.16682397
      3.04000000	      3.82698830	      1.47748384	    -51.40937667	     -0.33653029	      0.90837443	      0.11040838	      3.79617104	     -3.64939949	     10.62702737	    -56.28777464	     -6.49772595	     -3.16761433	     15.82717861	     -4.37277825	    -12.75586588	    -24.71344912	      2.77770144	      4.29506949	     -6.75354495	     -5.64938208	     -0.60743793
      3.05000000	      4.17545199	      1.72186529	    -52.20485390	     -0.32972564	      0.90947812	      0.11370081	      5.61191198	     -4.00819086	     10.45348105	    -59.14258578	     -7.94231064	     -3.12847462	     14.96395249	     -3.79963537	    -13.61353776	    -24.31806581	      3.13442265	      4.38663893	     -6.88380978	     -6.19772281	     -1.03350453
      3.06000000	      4.46552926	      1.91519216	    -53.01108227	     -0.32324360	      0.91051325	      0.11700663	      7.44085202	     -4.20143750	     10.36483834	    -61.82241376	     -9.05203248	     -2.96709144	     14.12293933	     -3.29901517	    -14.45141662	    -23.90904126	      3.48601602	      4.45345185	     -7.02768039	     -6.66190163	     -1.44635772
      3.07000000	      4.69446990	      2.04584636	    -53.80280788	     -0.31703762	      0.91150034	      0.12033272	      9.24235099	     -4.22140692	     10.30865267	    -64.28076408	     -9.82962563	     -2.70867542	     13.30636401	     -2.87991320	    -15.25604559	    -23.51514309	      3.84014979	      4.48890025	     -7.19520465	     -7.03183566	     -1.85671291
      3.08000000	      4.85810976	      2.09581561	    -54.56102103	     -0.31105194	      0.91249952	      0.12372096	     10.96413656	     -4.06146845	     10.23615929	    -66.46069911	    -10.30164750	     -2.44027588	     12.48126917	     -2.55304470	    -16.01570278	    -23.10777101	      4.18553769	      4.49531307	     -7.39323974	     -7.28812857	     -2.29016355
      3.09000000	      4.96494341	      2.06206560	    -55.28337747	     -0.30522752	      0.91353745	      0.12718784	     12.57947633	     -3.75670098	     10.09480964	    -68.33187246	    -10.51444909	     -2.24203316	     11.62986124	     -2.30861131	    -16.71794246	    -22.68744154	      4.54136684	      4.48488602	     -7.62905338	     -7.43800514	     -2.71414020
      3.10000000	      5.02112297	      1.95953994	    -55.93408948	     -0.29954971	      0.91457829	      0.13066910	     14.08745630	     -3.33324096	      9.85280397	    -69.89879646	    -10.48177342	     -2.06933362	     10.79722858	     -2.13717526	    -17.34125214	    -22.32219621	      4.91461031	      4.44773589	     -7.90721587	     -7.49591389	     -3.17294633
